<?xml version="1.0" encoding="UTF-8" standalone="no"?>
<!DOCTYPE svg PUBLIC "-//W3C//DTD SVG 1.1//EN"
 "http://www.w3.org/Graphics/SVG/1.1/DTD/svg11.dtd">
<!-- Generated by graphviz version 2.40.1 (20161225.0304)
 -->
<!-- Title: dependencies Pages: 1 -->
<svg width="869pt" height="284pt"
 viewBox="0.00 0.00 869.00 284.00" xmlns="http://www.w3.org/2000/svg" xmlns:xlink="http://www.w3.org/1999/xlink">
<g id="graph0" class="graph" transform="scale(1 1) rotate(0) translate(4 280)">
<title>dependencies</title>
<polygon fill="#ffffff" stroke="transparent" points="-4,4 -4,-280 865,-280 865,4 -4,4"/>
<text text-anchor="start" x="409.5091" y="-42.4" font-family="sans-serif" font-weight="bold" font-size="14.00" fill="#000000">Legend</text>
<polygon fill="#ffffb3" stroke="transparent" points="196.5,-10 196.5,-30 216.5,-30 216.5,-10 196.5,-10"/>
<text text-anchor="start" x="220.129" y="-15.4" font-family="sans-serif" font-size="14.00" fill="#000000"> &#160;Declarations</text>
<polygon fill="#8dd3c7" stroke="transparent" points="309.5,-10 309.5,-30 329.5,-30 329.5,-10 309.5,-10"/>
<text text-anchor="start" x="333.2251" y="-15.4" font-family="sans-serif" font-size="14.00" fill="#000000"> &#160;Module</text>
<polygon fill="#80b1d3" stroke="transparent" points="395.5,-10 395.5,-30 415.5,-30 415.5,-10 395.5,-10"/>
<text text-anchor="start" x="419.2812" y="-15.4" font-family="sans-serif" font-size="14.00" fill="#000000"> &#160;Bootstrap</text>
<polygon fill="#fdb462" stroke="transparent" points="492.5,-10 492.5,-30 512.5,-30 512.5,-10 492.5,-10"/>
<text text-anchor="start" x="516.1732" y="-15.4" font-family="sans-serif" font-size="14.00" fill="#000000"> &#160;Providers</text>
<polygon fill="#fb8072" stroke="transparent" points="588.5,-10 588.5,-30 608.5,-30 608.5,-10 588.5,-10"/>
<text text-anchor="start" x="612.2258" y="-15.4" font-family="sans-serif" font-size="14.00" fill="#000000"> &#160;Exports</text>
<g id="clust1" class="cluster">
<title>cluster_GamesModule</title>
<polygon fill="none" stroke="#000000" stroke-dasharray="1,5" points="8,-70 8,-268 853,-268 853,-70 8,-70"/>
</g>
<g id="clust2" class="cluster">
<title>cluster_GamesModule_declarations</title>
<polygon fill="none" stroke="#000000" points="503,-78 503,-130 845,-130 845,-78 503,-78"/>
</g>
<g id="clust5" class="cluster">
<title>cluster_GamesModule_imports</title>
<polygon fill="none" stroke="#000000" points="174,-78 174,-130 495,-130 495,-78 174,-78"/>
</g>
<g id="clust6" class="cluster">
<title>cluster_GamesModule_exports</title>
<polygon fill="none" stroke="#000000" points="169,-208 169,-260 663,-260 663,-208 169,-208"/>
</g>
<g id="clust8" class="cluster">
<title>cluster_GamesModule_providers</title>
<polygon fill="none" stroke="#000000" points="16,-78 16,-130 166,-130 166,-78 16,-78"/>
</g>
<!-- BrowseGamesComponent -->
<g id="node1" class="node">
<title>BrowseGamesComponent</title>
<polygon fill="#ffffb3" stroke="#000000" points="837.4664,-122 674.5336,-122 674.5336,-86 837.4664,-86 837.4664,-122"/>
<text text-anchor="middle" x="756" y="-99.8" font-family="Times,serif" font-size="14.00" fill="#000000">BrowseGamesComponent</text>
</g>
<!-- GamesModule -->
<g id="node3" class="node">
<title>GamesModule</title>
<polygon fill="#8dd3c7" stroke="#000000" points="453.4217,-187 450.4217,-191 429.4217,-191 426.4217,-187 354.5783,-187 354.5783,-151 453.4217,-151 453.4217,-187"/>
<text text-anchor="middle" x="404" y="-164.8" font-family="Times,serif" font-size="14.00" fill="#000000">GamesModule</text>
</g>
<!-- BrowseGamesComponent&#45;&gt;GamesModule -->
<g id="edge1" class="edge">
<title>BrowseGamesComponent&#45;&gt;GamesModule</title>
<path fill="none" stroke="#000000" d="M756,-122.1061C756,-141.3391 756,-169 756,-169 756,-169 463.3147,-169 463.3147,-169"/>
<polygon fill="#000000" stroke="#000000" points="463.3148,-165.5001 453.3147,-169 463.3147,-172.5001 463.3148,-165.5001"/>
</g>
<!-- GameViewComponent -->
<g id="node2" class="node">
<title>GameViewComponent</title>
<polygon fill="#ffffb3" stroke="#000000" points="656.5772,-122 511.4228,-122 511.4228,-86 656.5772,-86 656.5772,-122"/>
<text text-anchor="middle" x="584" y="-99.8" font-family="Times,serif" font-size="14.00" fill="#000000">GameViewComponent</text>
</g>
<!-- GameViewComponent&#45;&gt;GamesModule -->
<g id="edge2" class="edge">
<title>GameViewComponent&#45;&gt;GamesModule</title>
<path fill="none" stroke="#000000" d="M559.4038,-122.027C559.4038,-138.3976 559.4038,-160 559.4038,-160 559.4038,-160 463.598,-160 463.598,-160"/>
<polygon fill="#000000" stroke="#000000" points="463.598,-156.5001 453.598,-160 463.598,-163.5001 463.598,-156.5001"/>
</g>
<!-- GameViewComponent  -->
<g id="node6" class="node">
<title>GameViewComponent </title>
<polygon fill="#fb8072" stroke="#000000" points="655.0778,-252 506.9222,-252 506.9222,-216 655.0778,-216 655.0778,-252"/>
<text text-anchor="middle" x="581" y="-229.8" font-family="Times,serif" font-size="14.00" fill="#000000">GameViewComponent </text>
</g>
<!-- GamesModule&#45;&gt;GameViewComponent  -->
<g id="edge5" class="edge">
<title>GamesModule&#45;&gt;GameViewComponent </title>
<path fill="none" stroke="#000000" stroke-dasharray="5,2" d="M453.2244,-178C513.4053,-178 607.3462,-178 607.3462,-178 607.3462,-178 607.3462,-205.973 607.3462,-205.973"/>
<polygon fill="#000000" stroke="#000000" points="603.8463,-205.973 607.3462,-215.973 610.8463,-205.973 603.8463,-205.973"/>
</g>
<!-- RockPaperScissorsModule  -->
<g id="node7" class="node">
<title>RockPaperScissorsModule </title>
<polygon fill="#fb8072" stroke="#000000" points="489.356,-252 318.644,-252 318.644,-216 489.356,-216 489.356,-252"/>
<text text-anchor="middle" x="404" y="-229.8" font-family="Times,serif" font-size="14.00" fill="#000000">RockPaperScissorsModule </text>
</g>
<!-- GamesModule&#45;&gt;RockPaperScissorsModule  -->
<g id="edge6" class="edge">
<title>GamesModule&#45;&gt;RockPaperScissorsModule </title>
<path fill="none" stroke="#000000" stroke-dasharray="5,2" d="M404,-187.1061C404,-187.1061 404,-205.991 404,-205.991"/>
<polygon fill="#000000" stroke="#000000" points="400.5001,-205.9909 404,-215.991 407.5001,-205.991 400.5001,-205.9909"/>
</g>
<!-- TicTacToeModule  -->
<g id="node8" class="node">
<title>TicTacToeModule </title>
<polygon fill="#fb8072" stroke="#000000" points="301.4574,-252 176.5426,-252 176.5426,-216 301.4574,-216 301.4574,-252"/>
<text text-anchor="middle" x="239" y="-229.8" font-family="Times,serif" font-size="14.00" fill="#000000">TicTacToeModule </text>
</g>
<!-- GamesModule&#45;&gt;TicTacToeModule  -->
<g id="edge7" class="edge">
<title>GamesModule&#45;&gt;TicTacToeModule </title>
<path fill="none" stroke="#000000" stroke-dasharray="5,2" d="M354.5923,-178C300.5216,-178 221.4239,-178 221.4239,-178 221.4239,-178 221.4239,-205.973 221.4239,-205.973"/>
<polygon fill="#000000" stroke="#000000" points="217.924,-205.973 221.4239,-215.973 224.924,-205.973 217.924,-205.973"/>
</g>
<!-- RockPaperScissorsModule -->
<g id="node4" class="node">
<title>RockPaperScissorsModule</title>
<polygon fill="#8dd3c7" stroke="#000000" points="487.3557,-122 484.3557,-126 463.3557,-126 460.3557,-122 320.6443,-122 320.6443,-86 487.3557,-86 487.3557,-122"/>
<text text-anchor="middle" x="404" y="-99.8" font-family="Times,serif" font-size="14.00" fill="#000000">RockPaperScissorsModule</text>
</g>
<!-- RockPaperScissorsModule&#45;&gt;GamesModule -->
<g id="edge3" class="edge">
<title>RockPaperScissorsModule&#45;&gt;GamesModule</title>
<path fill="none" stroke="#000000" d="M404,-122.1061C404,-122.1061 404,-140.991 404,-140.991"/>
<polygon fill="#000000" stroke="#000000" points="400.5001,-140.9909 404,-150.991 407.5001,-140.991 400.5001,-140.9909"/>
</g>
<!-- TicTacToeModule -->
<g id="node5" class="node">
<title>TicTacToeModule</title>
<polygon fill="#8dd3c7" stroke="#000000" points="302.4566,-122 299.4566,-126 278.4566,-126 275.4566,-122 181.5434,-122 181.5434,-86 302.4566,-86 302.4566,-122"/>
<text text-anchor="middle" x="242" y="-99.8" font-family="Times,serif" font-size="14.00" fill="#000000">TicTacToeModule</text>
</g>
<!-- TicTacToeModule&#45;&gt;GamesModule -->
<g id="edge4" class="edge">
<title>TicTacToeModule&#45;&gt;GamesModule</title>
<path fill="none" stroke="#000000" d="M261.3261,-122.027C261.3261,-138.3976 261.3261,-160 261.3261,-160 261.3261,-160 344.5,-160 344.5,-160"/>
<polygon fill="#000000" stroke="#000000" points="344.5,-163.5001 354.5,-160 344.5,-156.5001 344.5,-163.5001"/>
</g>
<!-- GamesService -->
<g id="node9" class="node">
<title>GamesService</title>
<ellipse fill="#fdb462" stroke="#000000" cx="91" cy="-104" rx="66.6094" ry="18"/>
<text text-anchor="middle" x="91" y="-99.8" font-family="Times,serif" font-size="14.00" fill="#000000">GamesService</text>
</g>
<!-- GamesService&#45;&gt;GamesModule -->
<g id="edge8" class="edge">
<title>GamesService&#45;&gt;GamesModule</title>
<path fill="none" stroke="#000000" d="M91,-122.1061C91,-141.3391 91,-169 91,-169 91,-169 344.7494,-169 344.7494,-169"/>
<polygon fill="#000000" stroke="#000000" points="344.7495,-172.5001 354.7494,-169 344.7494,-165.5001 344.7495,-172.5001"/>
</g>
</g>
</svg>
