<?xml version="1.0" encoding="UTF-8" standalone="no"?>
<!DOCTYPE svg PUBLIC "-//W3C//DTD SVG 1.1//EN"
 "http://www.w3.org/Graphics/SVG/1.1/DTD/svg11.dtd">
<!-- Generated by graphviz version 2.40.1 (20161225.0304)
 -->
<!-- Title: dependencies Pages: 1 -->
<svg width="1409pt" height="436pt"
 viewBox="0.00 0.00 1409.00 436.00" xmlns="http://www.w3.org/2000/svg" xmlns:xlink="http://www.w3.org/1999/xlink">
<g id="graph0" class="graph" transform="scale(1 1) rotate(0) translate(4 432)">
<title>dependencies</title>
<polygon fill="#ffffff" stroke="transparent" points="-4,4 -4,-432 1405,-432 1405,4 -4,4"/>
<text text-anchor="start" x="679.5091" y="-42.4" font-family="sans-serif" font-weight="bold" font-size="14.00" fill="#000000">Legend</text>
<polygon fill="#ffffb3" stroke="transparent" points="466.5,-10 466.5,-30 486.5,-30 486.5,-10 466.5,-10"/>
<text text-anchor="start" x="490.129" y="-15.4" font-family="sans-serif" font-size="14.00" fill="#000000"> &#160;Declarations</text>
<polygon fill="#8dd3c7" stroke="transparent" points="579.5,-10 579.5,-30 599.5,-30 599.5,-10 579.5,-10"/>
<text text-anchor="start" x="603.2251" y="-15.4" font-family="sans-serif" font-size="14.00" fill="#000000"> &#160;Module</text>
<polygon fill="#80b1d3" stroke="transparent" points="665.5,-10 665.5,-30 685.5,-30 685.5,-10 665.5,-10"/>
<text text-anchor="start" x="689.2812" y="-15.4" font-family="sans-serif" font-size="14.00" fill="#000000"> &#160;Bootstrap</text>
<polygon fill="#fdb462" stroke="transparent" points="762.5,-10 762.5,-30 782.5,-30 782.5,-10 762.5,-10"/>
<text text-anchor="start" x="786.1732" y="-15.4" font-family="sans-serif" font-size="14.00" fill="#000000"> &#160;Providers</text>
<polygon fill="#fb8072" stroke="transparent" points="858.5,-10 858.5,-30 878.5,-30 878.5,-10 858.5,-10"/>
<text text-anchor="start" x="882.2258" y="-15.4" font-family="sans-serif" font-size="14.00" fill="#000000"> &#160;Exports</text>
<g id="clust1" class="cluster">
<title>cluster_AppModule</title>
<polygon fill="none" stroke="#000000" stroke-dasharray="1,5" points="569,-222 569,-420 829,-420 829,-222 569,-222"/>
</g>
<g id="clust2" class="cluster">
<title>cluster_AppModule_declarations</title>
<polygon fill="none" stroke="#000000" points="699,-230 699,-282 821,-282 821,-230 699,-230"/>
</g>
<g id="clust4" class="cluster">
<title>cluster_AppModule_imports</title>
<polygon fill="none" stroke="#000000" points="577,-230 577,-282 691,-282 691,-230 577,-230"/>
</g>
<g id="clust6" class="cluster">
<title>cluster_AppModule_bootstrap</title>
<polygon fill="none" stroke="#000000" points="637,-360 637,-412 761,-412 761,-360 637,-360"/>
</g>
<g id="clust14" class="cluster">
<title>cluster_GamesModule</title>
<polygon fill="none" stroke="#000000" stroke-dasharray="1,5" points="8,-146 8,-214 1355,-214 1355,-146 8,-146"/>
</g>
<g id="clust15" class="cluster">
<title>cluster_GamesModule_declarations</title>
<polygon fill="none" stroke="#000000" points="676,-154 676,-206 1018,-206 1018,-154 676,-154"/>
</g>
<g id="clust18" class="cluster">
<title>cluster_GamesModule_imports</title>
<polygon fill="none" stroke="#000000" points="1026,-154 1026,-206 1347,-206 1347,-154 1026,-154"/>
</g>
<g id="clust19" class="cluster">
<title>cluster_GamesModule_exports</title>
<polygon fill="none" stroke="#000000" points="16,-154 16,-206 510,-206 510,-154 16,-154"/>
</g>
<g id="clust21" class="cluster">
<title>cluster_GamesModule_providers</title>
<polygon fill="none" stroke="#000000" points="518,-154 518,-206 668,-206 668,-154 518,-154"/>
</g>
<g id="clust22" class="cluster">
<title>cluster_RockPaperScissorsModule</title>
<polygon fill="none" stroke="#000000" stroke-dasharray="1,5" points="884,-222 884,-290 1388,-290 1388,-222 884,-222"/>
</g>
<g id="clust23" class="cluster">
<title>cluster_RockPaperScissorsModule_declarations</title>
<polygon fill="none" stroke="#000000" points="1142,-230 1142,-282 1380,-282 1380,-230 1142,-230"/>
</g>
<g id="clust26" class="cluster">
<title>cluster_RockPaperScissorsModule_exports</title>
<polygon fill="none" stroke="#000000" points="892,-230 892,-282 1134,-282 1134,-230 892,-230"/>
</g>
<g id="clust29" class="cluster">
<title>cluster_TicTacToeModule</title>
<polygon fill="none" stroke="#000000" stroke-dasharray="1,5" points="786,-70 786,-138 1393,-138 1393,-70 786,-70"/>
</g>
<g id="clust30" class="cluster">
<title>cluster_TicTacToeModule_declarations</title>
<polygon fill="none" stroke="#000000" points="998,-78 998,-130 1385,-130 1385,-78 998,-78"/>
</g>
<g id="clust34" class="cluster">
<title>cluster_TicTacToeModule_exports</title>
<polygon fill="none" stroke="#000000" points="794,-78 794,-130 990,-130 990,-78 794,-78"/>
</g>
<!-- AppComponent -->
<g id="node1" class="node">
<title>AppComponent</title>
<polygon fill="#ffffb3" stroke="#000000" points="812.9399,-274 707.0601,-274 707.0601,-238 812.9399,-238 812.9399,-274"/>
<text text-anchor="middle" x="760" y="-251.8" font-family="Times,serif" font-size="14.00" fill="#000000">AppComponent</text>
</g>
<!-- AppModule -->
<g id="node2" class="node">
<title>AppModule</title>
<polygon fill="#8dd3c7" stroke="#000000" points="740.6571,-339 737.6571,-343 716.6571,-343 713.6571,-339 657.3429,-339 657.3429,-303 740.6571,-303 740.6571,-339"/>
<text text-anchor="middle" x="699" y="-316.8" font-family="Times,serif" font-size="14.00" fill="#000000">AppModule</text>
</g>
<!-- AppComponent&#45;&gt;AppModule -->
<g id="edge1" class="edge">
<title>AppComponent&#45;&gt;AppModule</title>
<path fill="none" stroke="#000000" d="M724.0544,-274.1061C724.0544,-274.1061 724.0544,-292.991 724.0544,-292.991"/>
<polygon fill="#000000" stroke="#000000" points="720.5544,-292.9909 724.0544,-302.991 727.5544,-292.991 720.5544,-292.9909"/>
</g>
<!-- AppComponent  -->
<g id="node4" class="node">
<title>AppComponent </title>
<polygon fill="#80b1d3" stroke="#000000" points="753.439,-404 644.561,-404 644.561,-368 753.439,-368 753.439,-404"/>
<text text-anchor="middle" x="699" y="-381.8" font-family="Times,serif" font-size="14.00" fill="#000000">AppComponent </text>
</g>
<!-- AppModule&#45;&gt;AppComponent  -->
<g id="edge3" class="edge">
<title>AppModule&#45;&gt;AppComponent </title>
<path fill="none" stroke="#000000" stroke-dasharray="1,5" d="M699,-339.1061C699,-339.1061 699,-357.991 699,-357.991"/>
<polygon fill="#000000" stroke="#000000" points="695.5001,-357.9909 699,-367.991 702.5001,-357.991 695.5001,-357.9909"/>
</g>
<!-- GamesModule -->
<g id="node3" class="node">
<title>GamesModule</title>
<polygon fill="#8dd3c7" stroke="#000000" points="683.4217,-274 680.4217,-278 659.4217,-278 656.4217,-274 584.5783,-274 584.5783,-238 683.4217,-238 683.4217,-274"/>
<text text-anchor="middle" x="634" y="-251.8" font-family="Times,serif" font-size="14.00" fill="#000000">GamesModule</text>
</g>
<!-- GamesModule&#45;&gt;AppModule -->
<g id="edge2" class="edge">
<title>GamesModule&#45;&gt;AppModule</title>
<path fill="none" stroke="#000000" d="M670.1911,-274.1061C670.1911,-274.1061 670.1911,-292.991 670.1911,-292.991"/>
<polygon fill="#000000" stroke="#000000" points="666.6912,-292.9909 670.1911,-302.991 673.6912,-292.991 666.6912,-292.9909"/>
</g>
<!-- GameViewComponent  -->
<g id="node9" class="node">
<title>GameViewComponent </title>
<polygon fill="#fb8072" stroke="#000000" points="502.0778,-198 353.9222,-198 353.9222,-162 502.0778,-162 502.0778,-198"/>
<text text-anchor="middle" x="428" y="-175.8" font-family="Times,serif" font-size="14.00" fill="#000000">GameViewComponent </text>
</g>
<!-- GamesModule&#45;&gt;GameViewComponent  -->
<g id="edge8" class="edge">
<title>GamesModule&#45;&gt;GameViewComponent </title>
<path fill="none" stroke="#000000" stroke-dasharray="5,2" d="M584.6579,-247C523.7146,-247 428,-247 428,-247 428,-247 428,-208.308 428,-208.308"/>
<polygon fill="#000000" stroke="#000000" points="431.5001,-208.308 428,-198.308 424.5001,-208.3081 431.5001,-208.308"/>
</g>
<!-- RockPaperScissorsModule  -->
<g id="node10" class="node">
<title>RockPaperScissorsModule </title>
<polygon fill="#fb8072" stroke="#000000" points="336.356,-198 165.644,-198 165.644,-162 336.356,-162 336.356,-198"/>
<text text-anchor="middle" x="251" y="-175.8" font-family="Times,serif" font-size="14.00" fill="#000000">RockPaperScissorsModule </text>
</g>
<!-- GamesModule&#45;&gt;RockPaperScissorsModule  -->
<g id="edge9" class="edge">
<title>GamesModule&#45;&gt;RockPaperScissorsModule </title>
<path fill="none" stroke="#000000" stroke-dasharray="5,2" d="M584.7135,-256C481.2713,-256 251,-256 251,-256 251,-256 251,-208.0109 251,-208.0109"/>
<polygon fill="#000000" stroke="#000000" points="254.5001,-208.0109 251,-198.0109 247.5001,-208.011 254.5001,-208.0109"/>
</g>
<!-- TicTacToeModule  -->
<g id="node11" class="node">
<title>TicTacToeModule </title>
<polygon fill="#fb8072" stroke="#000000" points="148.4574,-198 23.5426,-198 23.5426,-162 148.4574,-162 148.4574,-198"/>
<text text-anchor="middle" x="86" y="-175.8" font-family="Times,serif" font-size="14.00" fill="#000000">TicTacToeModule </text>
</g>
<!-- GamesModule&#45;&gt;TicTacToeModule  -->
<g id="edge10" class="edge">
<title>GamesModule&#45;&gt;TicTacToeModule </title>
<path fill="none" stroke="#000000" stroke-dasharray="5,2" d="M584.4021,-265C449.507,-265 86,-265 86,-265 86,-265 86,-208.0263 86,-208.0263"/>
<polygon fill="#000000" stroke="#000000" points="89.5001,-208.0263 86,-198.0263 82.5001,-208.0263 89.5001,-208.0263"/>
</g>
<!-- BrowseGamesComponent -->
<g id="node5" class="node">
<title>BrowseGamesComponent</title>
<polygon fill="#ffffb3" stroke="#000000" points="1010.4664,-198 847.5336,-198 847.5336,-162 1010.4664,-162 1010.4664,-198"/>
<text text-anchor="middle" x="929" y="-175.8" font-family="Times,serif" font-size="14.00" fill="#000000">BrowseGamesComponent</text>
</g>
<!-- BrowseGamesComponent&#45;&gt;GamesModule -->
<g id="edge4" class="edge">
<title>BrowseGamesComponent&#45;&gt;GamesModule</title>
<path fill="none" stroke="#000000" d="M873.8673,-198.207C873.8673,-203.5549 873.8673,-208 873.8673,-208 873.8673,-208 671.5074,-208 671.5074,-208 671.5074,-208 671.5074,-227.8533 671.5074,-227.8533"/>
<polygon fill="#000000" stroke="#000000" points="668.0075,-227.8532 671.5074,-237.8533 675.0075,-227.8533 668.0075,-227.8532"/>
</g>
<!-- GameViewComponent -->
<g id="node6" class="node">
<title>GameViewComponent</title>
<polygon fill="#ffffb3" stroke="#000000" points="829.5772,-198 684.4228,-198 684.4228,-162 829.5772,-162 829.5772,-198"/>
<text text-anchor="middle" x="757" y="-175.8" font-family="Times,serif" font-size="14.00" fill="#000000">GameViewComponent</text>
</g>
<!-- GameViewComponent&#45;&gt;GamesModule -->
<g id="edge5" class="edge">
<title>GameViewComponent&#45;&gt;GamesModule</title>
<path fill="none" stroke="#000000" d="M695.871,-198.0109C695.871,-220.4852 695.871,-256 695.871,-256 695.871,-256 693.3504,-256 693.3504,-256"/>
<polygon fill="#000000" stroke="#000000" points="693.3505,-252.5001 683.3504,-256 693.3504,-259.5001 693.3505,-252.5001"/>
</g>
<!-- RockPaperScissorsModule -->
<g id="node7" class="node">
<title>RockPaperScissorsModule</title>
<polygon fill="#8dd3c7" stroke="#000000" points="1339.3557,-198 1336.3557,-202 1315.3557,-202 1312.3557,-198 1172.6443,-198 1172.6443,-162 1339.3557,-162 1339.3557,-198"/>
<text text-anchor="middle" x="1256" y="-175.8" font-family="Times,serif" font-size="14.00" fill="#000000">RockPaperScissorsModule</text>
</g>
<!-- RockPaperScissorsModule&#45;&gt;GamesModule -->
<g id="edge6" class="edge">
<title>RockPaperScissorsModule&#45;&gt;GamesModule</title>
<path fill="none" stroke="#000000" d="M1177.3275,-161.8533C1177.3275,-148.2605 1177.3275,-132 1177.3275,-132 1177.3275,-132 665.6559,-132 665.6559,-132 665.6559,-132 665.6559,-227.9693 665.6559,-227.9693"/>
<polygon fill="#000000" stroke="#000000" points="662.156,-227.9693 665.6559,-237.9693 669.156,-227.9694 662.156,-227.9693"/>
</g>
<!-- RockPaperScissorsGameComponent  -->
<g id="node14" class="node">
<title>RockPaperScissorsGameComponent </title>
<polygon fill="#fb8072" stroke="#000000" points="1125.565,-274 900.435,-274 900.435,-238 1125.565,-238 1125.565,-274"/>
<text text-anchor="middle" x="1013" y="-251.8" font-family="Times,serif" font-size="14.00" fill="#000000">RockPaperScissorsGameComponent </text>
</g>
<!-- RockPaperScissorsModule&#45;&gt;RockPaperScissorsGameComponent  -->
<g id="edge13" class="edge">
<title>RockPaperScissorsModule&#45;&gt;RockPaperScissorsGameComponent </title>
<path fill="none" stroke="#000000" stroke-dasharray="5,2" d="M1228.1907,-198.1467C1228.1907,-211.7395 1228.1907,-228 1228.1907,-228 1228.1907,-228 1095.0288,-228 1095.0288,-228 1095.0288,-228 1095.0288,-228.9793 1095.0288,-228.9793"/>
<polygon fill="#000000" stroke="#000000" points="1091.5289,-227.793 1095.0288,-237.793 1098.5289,-227.7931 1091.5289,-227.793"/>
</g>
<!-- TicTacToeModule -->
<g id="node8" class="node">
<title>TicTacToeModule</title>
<polygon fill="#8dd3c7" stroke="#000000" points="1154.4566,-198 1151.4566,-202 1130.4566,-202 1127.4566,-198 1033.5434,-198 1033.5434,-162 1154.4566,-162 1154.4566,-198"/>
<text text-anchor="middle" x="1094" y="-175.8" font-family="Times,serif" font-size="14.00" fill="#000000">TicTacToeModule</text>
</g>
<!-- TicTacToeModule&#45;&gt;GamesModule -->
<g id="edge7" class="edge">
<title>TicTacToeModule&#45;&gt;GamesModule</title>
<path fill="none" stroke="#000000" d="M1064.2752,-198.1097C1064.2752,-207.897 1064.2752,-218 1064.2752,-218 1064.2752,-218 677.3589,-218 677.3589,-218 677.3589,-218 677.3589,-227.8903 677.3589,-227.8903"/>
<polygon fill="#000000" stroke="#000000" points="673.859,-227.8903 677.3589,-237.8903 680.859,-227.8904 673.859,-227.8903"/>
</g>
<!-- TicTacToeGameComponent  -->
<g id="node17" class="node">
<title>TicTacToeGameComponent </title>
<polygon fill="#fb8072" stroke="#000000" points="981.6659,-122 802.3341,-122 802.3341,-86 981.6659,-86 981.6659,-122"/>
<text text-anchor="middle" x="892" y="-99.8" font-family="Times,serif" font-size="14.00" fill="#000000">TicTacToeGameComponent </text>
</g>
<!-- TicTacToeModule&#45;&gt;TicTacToeGameComponent  -->
<g id="edge16" class="edge">
<title>TicTacToeModule&#45;&gt;TicTacToeGameComponent </title>
<path fill="none" stroke="#000000" stroke-dasharray="5,2" d="M1063.7609,-161.8903C1063.7609,-152.103 1063.7609,-142 1063.7609,-142 1063.7609,-142 914.6748,-142 914.6748,-142 914.6748,-142 914.6748,-132.1097 914.6748,-132.1097"/>
<polygon fill="#000000" stroke="#000000" points="918.1749,-132.1096 914.6748,-122.1097 911.1749,-132.1097 918.1749,-132.1096"/>
</g>
<!-- GamesService -->
<g id="node12" class="node">
<title>GamesService</title>
<ellipse fill="#fdb462" stroke="#000000" cx="593" cy="-180" rx="66.6094" ry="18"/>
<text text-anchor="middle" x="593" y="-175.8" font-family="Times,serif" font-size="14.00" fill="#000000">GamesService</text>
</g>
<!-- GamesService&#45;&gt;GamesModule -->
<g id="edge11" class="edge">
<title>GamesService&#45;&gt;GamesModule</title>
<path fill="none" stroke="#000000" d="M622.297,-196.4909C622.297,-196.4909 622.297,-227.9469 622.297,-227.9469"/>
<polygon fill="#000000" stroke="#000000" points="618.7971,-227.9469 622.297,-237.9469 625.7971,-227.9469 618.7971,-227.9469"/>
</g>
<!-- RockPaperScissorsGameComponent -->
<g id="node13" class="node">
<title>RockPaperScissorsGameComponent</title>
<polygon fill="#ffffb3" stroke="#000000" points="1372.0646,-274 1149.9354,-274 1149.9354,-238 1372.0646,-238 1372.0646,-274"/>
<text text-anchor="middle" x="1261" y="-251.8" font-family="Times,serif" font-size="14.00" fill="#000000">RockPaperScissorsGameComponent</text>
</g>
<!-- RockPaperScissorsGameComponent&#45;&gt;RockPaperScissorsModule -->
<g id="edge12" class="edge">
<title>RockPaperScissorsGameComponent&#45;&gt;RockPaperScissorsModule</title>
<path fill="none" stroke="#000000" d="M1283.8093,-237.9891C1283.8093,-237.9891 1283.8093,-208.145 1283.8093,-208.145"/>
<polygon fill="#000000" stroke="#000000" points="1287.3094,-208.145 1283.8093,-198.145 1280.3094,-208.1451 1287.3094,-208.145"/>
</g>
<!-- TicTacToeBoardComponent -->
<g id="node15" class="node">
<title>TicTacToeBoardComponent</title>
<polygon fill="#ffffb3" stroke="#000000" points="1377.451,-122 1200.549,-122 1200.549,-86 1377.451,-86 1377.451,-122"/>
<text text-anchor="middle" x="1289" y="-99.8" font-family="Times,serif" font-size="14.00" fill="#000000">TicTacToeBoardComponent</text>
</g>
<!-- TicTacToeBoardComponent&#45;&gt;TicTacToeModule -->
<g id="edge14" class="edge">
<title>TicTacToeBoardComponent&#45;&gt;TicTacToeModule</title>
<path fill="none" stroke="#000000" d="M1269.9762,-122.1467C1269.9762,-135.7395 1269.9762,-152 1269.9762,-152 1269.9762,-152 1124.2391,-152 1124.2391,-152 1124.2391,-152 1124.2391,-152.9793 1124.2391,-152.9793"/>
<polygon fill="#000000" stroke="#000000" points="1120.7393,-151.793 1124.2391,-161.793 1127.7393,-151.7931 1120.7393,-151.793"/>
</g>
<!-- TicTacToeGameComponent -->
<g id="node16" class="node">
<title>TicTacToeGameComponent</title>
<polygon fill="#ffffb3" stroke="#000000" points="1182.1657,-122 1005.8343,-122 1005.8343,-86 1182.1657,-86 1182.1657,-122"/>
<text text-anchor="middle" x="1094" y="-99.8" font-family="Times,serif" font-size="14.00" fill="#000000">TicTacToeGameComponent</text>
</g>
<!-- TicTacToeGameComponent&#45;&gt;TicTacToeModule -->
<g id="edge15" class="edge">
<title>TicTacToeGameComponent&#45;&gt;TicTacToeModule</title>
<path fill="none" stroke="#000000" d="M1094,-122.0109C1094,-122.0109 1094,-151.855 1094,-151.855"/>
<polygon fill="#000000" stroke="#000000" points="1090.5001,-151.8549 1094,-161.855 1097.5001,-151.855 1090.5001,-151.8549"/>
</g>
</g>
</svg>
